{
    "asset" : {
        "generator" : "Khronos glTF Blender I/O v3.2.43",
        "version" : "2.0"
    },
    "scene" : 0,
    "scenes" : [
        {
            "name" : "Scene",
            "nodes" : [
                0,
                1,
                2
            ]
        }
    ],
    "nodes" : [
        {
            "mesh" : 0,
            "name" : "B\u00e4nk"
        },
        {
            "mesh" : 1,
            "name" : "L\u00e5da_V\u00e4nster"
        },
        {
            "mesh" : 2,
            "name" : "Ben_Klassisk"
        }
    ],
    "materials" : [
        {
            "doubleSided" : true,
            "name" : "Material.007",
            "pbrMetallicRoughness" : {
                "baseColorFactor" : [
                    0.800000011920929,
                    0.800000011920929,
                    0.800000011920929,
                    1
                ],
                "metallicFactor" : 0,
                "roughnessFactor" : 0.5
            }
        },
        {
            "doubleSided" : true,
            "name" : "DeskBody",
            "pbrMetallicRoughness" : {
                "baseColorFactor" : [
                    0.018327711150050163,
                    0.017072761431336403,
                    0.017072761431336403,
                    1
                ],
                "metallicFactor" : 0,
                "roughnessFactor" : 0.18874996900558472
            }
        },
        {
            "doubleSided" : true,
            "name" : "Handle",
            "pbrMetallicRoughness" : {
                "baseColorFactor" : [
                    0.19598843157291412,
                    0.19598843157291412,
                    0.19598843157291412,
                    1
                ],
                "roughnessFactor" : 0.3238636255264282
            }
        }
    ],
    "meshes" : [
        {
            "name" : "Desk",
            "primitives" : [
                {
                    "attributes" : {
                        "POSITION" : 0,
                        "NORMAL" : 1,
                        "TEXCOORD_0" : 2
                    },
                    "indices" : 3,
                    "material" : 0
                }
            ]
        },
        {
            "name" : "Desk.003",
            "primitives" : [
                {
                    "attributes" : {
                        "POSITION" : 4,
                        "NORMAL" : 5,
                        "TEXCOORD_0" : 6
                    },
                    "indices" : 7,
                    "material" : 1
                },
                {
                    "attributes" : {
                        "POSITION" : 8,
                        "NORMAL" : 9,
                        "TEXCOORD_0" : 10
                    },
                    "indices" : 11,
                    "material" : 2
                }
            ]
        },
        {
            "name" : "Desk.004",
            "primitives" : [
                {
                    "attributes" : {
                        "POSITION" : 12,
                        "NORMAL" : 13,
                        "TEXCOORD_0" : 14
                    },
                    "indices" : 15,
                    "material" : 1
                }
            ]
        }
    ],
    "accessors" : [
        {
            "bufferView" : 0,
            "componentType" : 5126,
            "count" : 301,
            "max" : [
                0.642108142375946,
                0.7599835395812988,
                0.3089205324649811
            ],
            "min" : [
                -0.6341832876205444,
                0.7302192449569702,
                -0.31395697593688965
            ],
            "type" : "VEC3"
        },
        {
            "bufferView" : 1,
            "componentType" : 5126,
            "count" : 301,
            "type" : "VEC3"
        },
        {
            "bufferView" : 2,
            "componentType" : 5126,
            "count" : 301,
            "type" : "VEC2"
        },
        {
            "bufferView" : 3,
            "componentType" : 5123,
            "count" : 1428,
            "type" : "SCALAR"
        },
        {
            "bufferView" : 4,
            "componentType" : 5126,
            "count" : 1810,
            "max" : [
                -0.13515864312648773,
                0.7384665608406067,
                0.2914179861545563
            ],
            "min" : [
                -0.572325587272644,
                0.5628113150596619,
                -0.29247215390205383
            ],
            "type" : "VEC3"
        },
        {
            "bufferView" : 5,
            "componentType" : 5126,
            "count" : 1810,
            "type" : "VEC3"
        },
        {
            "bufferView" : 6,
            "componentType" : 5126,
            "count" : 1810,
            "type" : "VEC2"
        },
        {
            "bufferView" : 7,
            "componentType" : 5123,
            "count" : 4200,
            "type" : "SCALAR"
        },
        {
            "bufferView" : 8,
            "componentType" : 5126,
            "count" : 787,
            "max" : [
                -0.33290600776672363,
                0.669049859046936,
                0.3024525046348572
            ],
            "min" : [
                -0.36721399426460266,
                0.6350594162940979,
                0.28260135650634766
            ],
            "type" : "VEC3"
        },
        {
            "bufferView" : 9,
            "componentType" : 5126,
            "count" : 787,
            "type" : "VEC3"
        },
        {
            "bufferView" : 10,
            "componentType" : 5126,
            "count" : 787,
            "type" : "VEC2"
        },
        {
            "bufferView" : 11,
            "componentType" : 5123,
            "count" : 4224,
            "type" : "SCALAR"
        },
        {
            "bufferView" : 12,
            "componentType" : 5126,
            "count" : 564,
            "max" : [
                0.6514613628387451,
                0.7507206201553345,
                0.2929255962371826
            ],
            "min" : [
                -0.6366938948631287,
                -6.252458403452343e-14,
                -0.2929255962371826
            ],
            "type" : "VEC3"
        },
        {
            "bufferView" : 13,
            "componentType" : 5126,
            "count" : 564,
            "type" : "VEC3"
        },
        {
            "bufferView" : 14,
            "componentType" : 5126,
            "count" : 564,
            "type" : "VEC2"
        },
        {
            "bufferView" : 15,
            "componentType" : 5123,
            "count" : 2256,
            "type" : "SCALAR"
        }
    ],
    "bufferViews" : [
        {
            "buffer" : 0,
            "byteLength" : 3612,
            "byteOffset" : 0
        },
        {
            "buffer" : 0,
            "byteLength" : 3612,
            "byteOffset" : 3612
        },
        {
            "buffer" : 0,
            "byteLength" : 2408,
            "byteOffset" : 7224
        },
        {
            "buffer" : 0,
            "byteLength" : 2856,
            "byteOffset" : 9632
        },
        {
            "buffer" : 0,
            "byteLength" : 21720,
            "byteOffset" : 12488
        },
        {
            "buffer" : 0,
            "byteLength" : 21720,
            "byteOffset" : 34208
        },
        {
            "buffer" : 0,
            "byteLength" : 14480,
            "byteOffset" : 55928
        },
        {
            "buffer" : 0,
            "byteLength" : 8400,
            "byteOffset" : 70408
        },
        {
            "buffer" : 0,
            "byteLength" : 9444,
            "byteOffset" : 78808
        },
        {
            "buffer" : 0,
            "byteLength" : 9444,
            "byteOffset" : 88252
        },
        {
            "buffer" : 0,
            "byteLength" : 6296,
            "byteOffset" : 97696
        },
        {
            "buffer" : 0,
            "byteLength" : 8448,
            "byteOffset" : 103992
        },
        {
            "buffer" : 0,
            "byteLength" : 6768,
            "byteOffset" : 112440
        },
        {
            "buffer" : 0,
            "byteLength" : 6768,
            "byteOffset" : 119208
        },
        {
            "buffer" : 0,
            "byteLength" : 4512,
            "byteOffset" : 125976
        },
        {
            "buffer" : 0,
            "byteLength" : 4512,
            "byteOffset" : 130488
        }
    ],
    "buffers" : [
        {
            "byteLength" : 135000,
            "uri" : "data:application/octet-stream;base64,"
        }
    ]
}
